# xmcd
#
# Track frame offsets:
# 150
# 16200
# 34041
# 45682
# 56867
# 67625
# 88835
# 110103
# 125482
# 139944
# 161801
# 175300
#
# Disc length: 2504 seconds
#
# Revision: 1
# Processed by: cddbd v1.5PL3 Copyright (c) Steve Scherf et al.
# Submitted via: inCDius 2.0b9
#
DISCID=a809c60c
DTITLE=The Bushdrovers - Still Drovin'
DYEAR=1900
DGENRE=
TTITLE0=Aragon Mill
TTITLE1=Katherine
TTITLE2=Poor Ned
TTITLE3=South Australia
TTITLE4=Still Drovin' Tunes
TTITLE5=Fields of Athenry
TTITLE6=Les Darcy
TTITLE7=Farewell Dan and Edward Kelly
TTITLE8=Botany Bay
TTITLE9=William McBride
TTITLE10=Lachlan Tigers
TTITLE11=Too Many Friends
EXTD=In 2004 The Bushdrovers are celebrating ten years of performing with thei
EXTD=r third CD, "Still Drovin'".  Who would have thought a band from the smal
EXTD=l town of Berrigan, in NSW Australia, would go on such a long journey.  C
EXTD=ome visit at bushdrovers.com
EXTT0=
EXTT1=
EXTT2=
EXTT3=
EXTT4=
EXTT5=
EXTT6=
EXTT7=
EXTT8=
EXTT9=
EXTT10=
EXTT11=
PLAYORDER=
